G04 #@! TF.FileFunction,Copper,L2,Bot,Signal*
%FSLAX46Y46*%
G04 Gerber Fmt 4.6, Leading zero omitted, Abs format (unit mm)*
G04 Created by KiCad (PCBNEW 4.0.5) date 05/17/17 17:13:19*
%MOMM*%
%LPD*%
G01*
G04 APERTURE LIST*
%ADD10C,0.100000*%
%ADD11C,2.340000*%
%ADD12R,1.600000X1.600000*%
%ADD13C,1.600000*%
%ADD14R,2.000000X2.000000*%
%ADD15O,2.000000X2.000000*%
%ADD16R,1.800000X1.800000*%
%ADD17C,1.800000*%
%ADD18C,2.499360*%
%ADD19R,1.700000X1.700000*%
%ADD20O,1.700000X1.700000*%
%ADD21C,1.651000*%
%ADD22C,2.500000*%
%ADD23R,2.400000X1.600000*%
%ADD24O,2.400000X1.600000*%
%ADD25O,1.800000X1.800000*%
%ADD26C,2.000000*%
%ADD27C,0.304800*%
%ADD28C,1.016000*%
%ADD29C,0.711200*%
G04 APERTURE END LIST*
D10*
D11*
X73740000Y44450000D03*
X78740000Y44450000D03*
X83740000Y44450000D03*
D12*
X63825000Y41910000D03*
D13*
X60325000Y41910000D03*
X34290000Y12700000D03*
X34290000Y7700000D03*
D12*
X78780000Y13970000D03*
D13*
X81280000Y13970000D03*
X41910000Y12700000D03*
X41910000Y7700000D03*
D12*
X50800000Y11390000D03*
D13*
X50800000Y8890000D03*
X40560000Y33020000D03*
X35560000Y33020000D03*
X64770000Y33020000D03*
X59770000Y33020000D03*
X85010000Y33020000D03*
X80010000Y33020000D03*
D14*
X24130000Y21590000D03*
D15*
X19050000Y21590000D03*
D14*
X19050000Y29210000D03*
D15*
X24130000Y29210000D03*
D14*
X24130000Y36830000D03*
D15*
X19050000Y36830000D03*
D14*
X19050000Y44450000D03*
D15*
X24130000Y44450000D03*
D14*
X67310000Y7620000D03*
D15*
X67310000Y12700000D03*
D14*
X73660000Y7620000D03*
D15*
X78740000Y7620000D03*
D14*
X24130000Y13970000D03*
D15*
X24130000Y8890000D03*
D16*
X91440000Y41910000D03*
D17*
X91440000Y44450000D03*
D18*
X6350000Y25400000D03*
X6350000Y35560000D03*
D19*
X101600000Y15240000D03*
D20*
X101600000Y17780000D03*
D18*
X6350000Y15240000D03*
X101600000Y27940000D03*
X101600000Y34290000D03*
D21*
X45720000Y25400000D03*
X45720000Y33020000D03*
X26670000Y25400000D03*
X19050000Y25400000D03*
X69850000Y33020000D03*
X69850000Y25400000D03*
X74930000Y33020000D03*
X74930000Y25400000D03*
X49530000Y33020000D03*
X49530000Y25400000D03*
X53340000Y25400000D03*
X53340000Y33020000D03*
X26670000Y40640000D03*
X19050000Y40640000D03*
D22*
X49530000Y39370000D03*
X47030000Y44410000D03*
X52030000Y44410000D03*
X38140000Y39410000D03*
X35640000Y44450000D03*
X40640000Y44450000D03*
D23*
X34290000Y29210000D03*
D24*
X41910000Y21590000D03*
X34290000Y26670000D03*
X41910000Y24130000D03*
X34290000Y24130000D03*
X41910000Y26670000D03*
X34290000Y21590000D03*
X41910000Y29210000D03*
D23*
X58420000Y29210000D03*
D24*
X66040000Y21590000D03*
X58420000Y26670000D03*
X66040000Y24130000D03*
X58420000Y24130000D03*
X66040000Y26670000D03*
X58420000Y21590000D03*
X66040000Y29210000D03*
D16*
X60960000Y7620000D03*
D25*
X60960000Y10160000D03*
X60960000Y12700000D03*
D23*
X78740000Y29210000D03*
D24*
X86360000Y21590000D03*
X78740000Y26670000D03*
X86360000Y24130000D03*
X78740000Y24130000D03*
X86360000Y26670000D03*
X78740000Y21590000D03*
X86360000Y29210000D03*
D26*
X6180000Y45510000D03*
X6180000Y6140000D03*
X98890000Y6140000D03*
X98890000Y45510000D03*
X85010000Y35814000D03*
X64770000Y35814000D03*
D27*
X69850000Y33020000D02*
X72390000Y33020000D01*
X75692000Y31750000D02*
X76200000Y32258000D01*
X72390000Y33020000D02*
X73660000Y31750000D01*
X76708000Y26924000D02*
X76708000Y25146000D01*
X73660000Y31750000D02*
X75692000Y31750000D01*
X76200000Y32258000D02*
X76200000Y33274000D01*
X80518000Y27940000D02*
X77724000Y27940000D01*
X76708000Y25146000D02*
X77724000Y24130000D01*
X76200000Y33274000D02*
X77470000Y34544000D01*
X77470000Y34544000D02*
X81026000Y34544000D01*
X81534000Y34036000D02*
X81534000Y28956000D01*
X81534000Y28956000D02*
X80518000Y27940000D01*
X81026000Y34544000D02*
X81534000Y34036000D01*
X77724000Y27940000D02*
X76708000Y26924000D01*
X77724000Y24130000D02*
X78740000Y24130000D01*
D28*
X80010000Y24130000D02*
X82550000Y21590000D01*
X82550000Y21590000D02*
X86360000Y21590000D01*
X78740000Y24130000D02*
X80010000Y24130000D01*
X68580000Y41910000D02*
X69850000Y40640000D01*
X69850000Y40640000D02*
X69850000Y33020000D01*
X63825000Y41910000D02*
X68580000Y41910000D01*
X104140000Y33020000D02*
X102870000Y34290000D01*
X102870000Y34290000D02*
X101600000Y34290000D01*
X104140000Y24892000D02*
X104140000Y33020000D01*
X102362000Y23114000D02*
X104140000Y24892000D01*
X96012000Y23114000D02*
X102362000Y23114000D01*
X91948000Y19050000D02*
X96012000Y23114000D01*
X78740000Y19050000D02*
X91948000Y19050000D01*
X78740000Y21590000D02*
X74930000Y21590000D01*
X74930000Y21590000D02*
X72898000Y23622000D01*
X74422000Y30734000D02*
X76962000Y30734000D01*
X72898000Y23622000D02*
X72898000Y29210000D01*
X72898000Y29210000D02*
X74422000Y30734000D01*
X79248000Y33020000D02*
X80010000Y33020000D01*
X76962000Y30734000D02*
X79248000Y33020000D01*
D27*
X49530000Y33020000D02*
X49530000Y27432000D01*
X51816000Y24130000D02*
X54102000Y24130000D01*
X49530000Y27432000D02*
X51308000Y25654000D01*
X51308000Y25654000D02*
X51308000Y24638000D01*
X51308000Y24638000D02*
X51816000Y24130000D01*
X54102000Y24130000D02*
X55372000Y25400000D01*
X60198000Y22352000D02*
X59436000Y21590000D01*
X55372000Y25400000D02*
X59690000Y25400000D01*
X59690000Y25400000D02*
X60198000Y24892000D01*
X60198000Y24892000D02*
X60198000Y22352000D01*
X59436000Y21590000D02*
X58420000Y21590000D01*
D29*
X58420000Y21590000D02*
X59182000Y21590000D01*
D28*
X57404000Y46736000D02*
X58674000Y46736000D01*
X43688000Y46736000D02*
X57404000Y46736000D01*
X57404000Y46736000D02*
X71454000Y46736000D01*
X71454000Y46736000D02*
X73740000Y44450000D01*
X94488000Y34290000D02*
X91440000Y37338000D01*
X91440000Y37338000D02*
X91440000Y41910000D01*
X101600000Y34290000D02*
X94488000Y34290000D01*
X58674000Y46736000D02*
X60325000Y45085000D01*
X60325000Y45085000D02*
X60325000Y41910000D01*
X43688000Y46736000D02*
X44704000Y46736000D01*
X35306000Y46736000D02*
X43688000Y46736000D01*
X60325000Y41910000D02*
X60325000Y33575000D01*
X60325000Y33575000D02*
X59770000Y33020000D01*
X49530000Y33020000D02*
X49530000Y39370000D01*
X47244000Y39370000D02*
X47030000Y39584000D01*
X47030000Y39584000D02*
X47030000Y44410000D01*
X49530000Y39370000D02*
X47244000Y39370000D01*
X35306000Y46736000D02*
X26416000Y46736000D01*
X37084000Y46736000D02*
X35306000Y46736000D01*
X44704000Y46736000D02*
X47030000Y44410000D01*
X26416000Y46736000D02*
X24130000Y44450000D01*
X38354000Y45466000D02*
X37084000Y46736000D01*
X38354000Y42926000D02*
X38354000Y45466000D01*
X40640000Y40640000D02*
X38354000Y42926000D01*
X40640000Y38354000D02*
X40640000Y40640000D01*
X35560000Y33274000D02*
X40640000Y38354000D01*
X35560000Y33020000D02*
X35560000Y33274000D01*
X36576000Y22352000D02*
X35814000Y21590000D01*
X35814000Y21590000D02*
X34290000Y21590000D01*
X36576000Y30734000D02*
X36576000Y22352000D01*
X35560000Y31750000D02*
X36576000Y30734000D01*
X35560000Y33020000D02*
X35560000Y31750000D01*
X24130000Y29210000D02*
X24130000Y28956000D01*
X24130000Y28956000D02*
X21590000Y26416000D01*
X21590000Y26416000D02*
X21590000Y19050000D01*
X21590000Y19050000D02*
X15240000Y12700000D01*
X24130000Y44450000D02*
X21590000Y41910000D01*
X21590000Y41910000D02*
X21590000Y31750000D01*
X21590000Y31750000D02*
X24130000Y29210000D01*
X19050000Y8890000D02*
X15240000Y12700000D01*
X15240000Y12700000D02*
X12700000Y15240000D01*
X12700000Y15240000D02*
X6350000Y15240000D01*
X24130000Y8890000D02*
X19050000Y8890000D01*
X24130000Y8890000D02*
X33100000Y8890000D01*
X33100000Y8890000D02*
X34290000Y7700000D01*
X34290000Y7700000D02*
X41910000Y7700000D01*
X50800000Y8890000D02*
X43100000Y8890000D01*
X43100000Y8890000D02*
X41910000Y7700000D01*
X57150000Y8890000D02*
X58420000Y10160000D01*
X58420000Y10160000D02*
X60960000Y10160000D01*
X50800000Y8890000D02*
X57150000Y8890000D01*
X60960000Y10160000D02*
X76200000Y10160000D01*
X78740000Y19050000D02*
X76200000Y16510000D01*
X76200000Y10160000D02*
X80010000Y10160000D01*
X76200000Y16510000D02*
X76200000Y10160000D01*
X78740000Y21590000D02*
X78740000Y19050000D01*
X99060000Y17780000D02*
X91440000Y10160000D01*
X91440000Y10160000D02*
X80010000Y10160000D01*
X101600000Y17780000D02*
X99060000Y17780000D01*
X80010000Y10160000D02*
X81280000Y11430000D01*
X81280000Y11430000D02*
X81280000Y13970000D01*
X85010000Y33020000D02*
X85010000Y35814000D01*
X85010000Y35814000D02*
X85010000Y43180000D01*
X64770000Y33020000D02*
X64770000Y35814000D01*
X85010000Y43180000D02*
X83740000Y44450000D01*
D27*
X64008000Y27940000D02*
X65278000Y29210000D01*
X65278000Y29210000D02*
X66040000Y29210000D01*
X64008000Y23368000D02*
X64008000Y27940000D01*
X64516000Y22860000D02*
X64008000Y23368000D01*
X67056000Y22860000D02*
X64516000Y22860000D01*
X67818000Y22098000D02*
X67056000Y22860000D01*
X67818000Y20574000D02*
X67818000Y22098000D01*
X67310000Y20066000D02*
X67818000Y20574000D01*
X67310000Y12700000D02*
X67310000Y20066000D01*
D28*
X86360000Y29210000D02*
X86360000Y31670000D01*
X86360000Y31670000D02*
X85010000Y33020000D01*
X64770000Y33020000D02*
X64770000Y30480000D01*
X64770000Y30480000D02*
X66040000Y29210000D01*
X24130000Y36830000D02*
X24130000Y31750000D01*
X24130000Y31750000D02*
X26670000Y29210000D01*
X26670000Y29210000D02*
X26670000Y27686000D01*
X26670000Y27686000D02*
X24130000Y25146000D01*
X24130000Y25146000D02*
X24130000Y21590000D01*
X41910000Y12700000D02*
X38100000Y12700000D01*
X38100000Y12700000D02*
X34290000Y12700000D01*
X38100000Y25400000D02*
X38100000Y12700000D01*
X39370000Y26670000D02*
X38100000Y25400000D01*
X41910000Y26670000D02*
X39370000Y26670000D01*
X43180000Y26670000D02*
X45720000Y29210000D01*
X45720000Y29210000D02*
X45720000Y33020000D01*
X41910000Y26670000D02*
X43180000Y26670000D01*
X40560000Y33020000D02*
X45720000Y33020000D01*
X24130000Y13970000D02*
X24130000Y21590000D01*
X33020000Y12700000D02*
X31750000Y13970000D01*
X31750000Y13970000D02*
X24130000Y13970000D01*
X34290000Y12700000D02*
X33020000Y12700000D01*
X41910000Y12700000D02*
X49490000Y12700000D01*
X49490000Y12700000D02*
X50800000Y11390000D01*
X60960000Y12700000D02*
X52110000Y12700000D01*
X52110000Y12700000D02*
X50800000Y11390000D01*
X67310000Y12700000D02*
X60960000Y12700000D01*
X78780000Y13970000D02*
X78780000Y15280000D01*
X78780000Y15280000D02*
X80010000Y16510000D01*
X97790000Y20320000D02*
X102870000Y20320000D01*
X80010000Y16510000D02*
X93980000Y16510000D01*
X93980000Y16510000D02*
X97790000Y20320000D01*
X102870000Y20320000D02*
X104140000Y19050000D01*
X104140000Y19050000D02*
X104140000Y3810000D01*
X104140000Y3810000D02*
X101600000Y1270000D01*
X101600000Y1270000D02*
X95250000Y1270000D01*
X95250000Y1270000D02*
X92710000Y3810000D01*
X92710000Y3810000D02*
X76200000Y3810000D01*
X76200000Y3810000D02*
X73660000Y6350000D01*
X73660000Y6350000D02*
X73660000Y7620000D01*
X60960000Y7620000D02*
X67310000Y7620000D01*
X73660000Y7620000D02*
X67310000Y7620000D01*
X6350000Y25400000D02*
X19050000Y25400000D01*
X19050000Y25400000D02*
X19050000Y29210000D01*
X19050000Y21590000D02*
X19050000Y25400000D01*
X19050000Y44450000D02*
X19050000Y40640000D01*
X19050000Y40640000D02*
X19050000Y36830000D01*
X6350000Y35560000D02*
X17780000Y35560000D01*
X17780000Y35560000D02*
X19050000Y36830000D01*
X100330000Y15240000D02*
X92710000Y7620000D01*
X92710000Y7620000D02*
X78740000Y7620000D01*
X101600000Y15240000D02*
X100330000Y15240000D01*
X77470000Y46482000D02*
X89408000Y46482000D01*
X89408000Y46482000D02*
X91440000Y44450000D01*
X76454000Y45466000D02*
X77470000Y46482000D01*
X76454000Y42418000D02*
X76454000Y45466000D01*
X74930000Y40894000D02*
X76454000Y42418000D01*
X74930000Y33020000D02*
X74930000Y40894000D01*
X94742000Y27940000D02*
X93472000Y26670000D01*
X93472000Y26670000D02*
X86360000Y26670000D01*
X101600000Y27940000D02*
X94742000Y27940000D01*
X86360000Y24130000D02*
X86360000Y26670000D01*
X50292000Y22606000D02*
X49530000Y23368000D01*
X49530000Y23368000D02*
X49530000Y25400000D01*
X54356000Y22606000D02*
X50292000Y22606000D01*
X55880000Y24130000D02*
X54356000Y22606000D01*
X58420000Y24130000D02*
X55880000Y24130000D01*
X49530000Y25400000D02*
X45720000Y25400000D01*
X41910000Y24130000D02*
X44450000Y24130000D01*
X44450000Y24130000D02*
X45720000Y25400000D01*
X29210000Y25400000D02*
X30480000Y24130000D01*
X30480000Y24130000D02*
X34290000Y24130000D01*
X26670000Y25400000D02*
X29210000Y25400000D01*
X66040000Y26670000D02*
X66040000Y24130000D01*
X66040000Y24130000D02*
X68580000Y24130000D01*
X68580000Y24130000D02*
X69850000Y25400000D01*
X74930000Y27940000D02*
X76200000Y29210000D01*
X76200000Y29210000D02*
X78740000Y29210000D01*
X74930000Y25400000D02*
X74930000Y27940000D01*
X51308000Y34544000D02*
X51308000Y27432000D01*
X51308000Y27432000D02*
X53340000Y25400000D01*
X52030000Y35266000D02*
X51308000Y34544000D01*
X52030000Y44410000D02*
X52030000Y35266000D01*
X53848000Y25400000D02*
X55118000Y26670000D01*
X55118000Y26670000D02*
X58420000Y26670000D01*
X53340000Y25400000D02*
X53848000Y25400000D01*
X62484000Y26924000D02*
X60198000Y29210000D01*
X60198000Y29210000D02*
X58420000Y29210000D01*
X62484000Y22606000D02*
X62484000Y26924000D01*
X63500000Y21590000D02*
X62484000Y22606000D01*
X66040000Y21590000D02*
X63500000Y21590000D01*
X53340000Y30226000D02*
X54356000Y29210000D01*
X54356000Y29210000D02*
X58420000Y29210000D01*
X53340000Y33020000D02*
X53340000Y30226000D01*
X26670000Y31750000D02*
X31750000Y26670000D01*
X31750000Y26670000D02*
X34290000Y26670000D01*
X26670000Y40640000D02*
X26670000Y31750000D01*
X78740000Y44450000D02*
X78740000Y39370000D01*
X78740000Y39370000D02*
X83058000Y35052000D01*
X83058000Y35052000D02*
X83058000Y31750000D01*
X83058000Y31750000D02*
X83566000Y31242000D01*
X83566000Y31242000D02*
X83566000Y29464000D01*
X80772000Y26670000D02*
X78740000Y26670000D01*
X83566000Y29464000D02*
X80772000Y26670000D01*
X31750000Y30480000D02*
X31750000Y38020000D01*
X31750000Y38020000D02*
X35640000Y41910000D01*
X33020000Y29210000D02*
X31750000Y30480000D01*
X34290000Y29210000D02*
X33020000Y29210000D01*
X35640000Y44450000D02*
X35640000Y41910000D01*
X35640000Y41910000D02*
X38140000Y39410000D01*
X41910000Y29210000D02*
X39370000Y29210000D01*
X39370000Y29210000D02*
X38100000Y30480000D01*
X38100000Y30480000D02*
X38100000Y33020000D01*
X38100000Y33020000D02*
X43434000Y38354000D01*
X43434000Y38354000D02*
X43434000Y42926000D01*
X43434000Y42926000D02*
X41910000Y44450000D01*
X41910000Y44450000D02*
X40640000Y44450000D01*
M02*
