M48
;DRILL file {KiCad 4.0.5} date 05/17/17 17:13:21
;FORMAT={3:3/ absolute / metric / keep zeros}
FMAT,2
METRIC,TZ
T1C0.800
T2C0.900
T3C1.000
T4C1.200
%
G90
G05
M71
T1
X019050Y044450
X019050Y040640
X019050Y036830
X019050Y029210
X019050Y025400
X019050Y021590
X024130Y044450
X024130Y036830
X024130Y029210
X024130Y021590
X024130Y013970
X024130Y008890
X026670Y040640
X026670Y025400
X034290Y029210
X034290Y026670
X034290Y024130
X034290Y021590
X034290Y012700
X034290Y007700
X035560Y033020
X040560Y033020
X041910Y029210
X041910Y026670
X041910Y024130
X041910Y021590
X041910Y012700
X041910Y007700
X045720Y033020
X045720Y025400
X049530Y033020
X049530Y025400
X050800Y011390
X050800Y008890
X053340Y033020
X053340Y025400
X058420Y029210
X058420Y026670
X058420Y024130
X058420Y021590
X059770Y033020
X060325Y041910
X063825Y041910
X064770Y033020
X066040Y029210
X066040Y026670
X066040Y024130
X066040Y021590
X067310Y012700
X067310Y007620
X069850Y033020
X069850Y025400
X073660Y007620
X074930Y033020
X074930Y025400
X078740Y029210
X078740Y026670
X078740Y024130
X078740Y021590
X078740Y007620
X078780Y013970
X080010Y033020
X081280Y013970
X085010Y033020
X086360Y029210
X086360Y026670
X086360Y024130
X086360Y021590
T2
X091440Y044450
X091440Y041910
T3
X006180Y045510
X006180Y006140
X006350Y035560
X006350Y025400
X006350Y015240
X060960Y012700
X060960Y010160
X060960Y007620
X064770Y035814
X073740Y044450
X078740Y044450
X083740Y044450
X085010Y035814
X098890Y045510
X098890Y006140
X101600Y034290
X101600Y027940
X101600Y017780
X101600Y015240
T4
X035640Y044450
X038140Y039410
X040640Y044450
X047030Y044410
X049530Y039370
X052030Y044410
T0
M30
